<svg xmlns="http://www.w3.org/2000/svg" viewBox="0 0 1400 560" width="1400" height="560">
  <title>Rejilla de problemas resueltos, agrupados por patron</title>
  <rect width="1400" height="560" fill="#0a0d16"/>
  <g stroke="#1b2436" stroke-width="1" opacity="0.45">
    <line x1="100" y1="0" x2="100" y2="560"/><line x1="300" y1="0" x2="300" y2="560"/>
    <line x1="500" y1="0" x2="500" y2="560"/><line x1="700" y1="0" x2="700" y2="560"/>
    <line x1="900" y1="0" x2="900" y2="560"/><line x1="1100" y1="0" x2="1100" y2="560"/>
    <line x1="1300" y1="0" x2="1300" y2="560"/>
    <line x1="0" y1="100" x2="1400" y2="100"/><line x1="0" y1="300" x2="1400" y2="300"/>
    <line x1="0" y1="500" x2="1400" y2="500"/>
  </g>

  <!-- Rejilla de problemas: resuelto en teal, intentado en cian, pendiente apagado -->
  <g stroke-width="2.2">
    <rect x="120" y="120" width="52" height="52" rx="8" fill="#2bf0a8" fill-opacity="0.85" stroke="#2bf0a8"/>
    <rect x="192" y="120" width="52" height="52" rx="8" fill="#2bf0a8" fill-opacity="0.7" stroke="#2bf0a8"/>
    <rect x="264" y="120" width="52" height="52" rx="8" fill="#2bf0a8" fill-opacity="0.55" stroke="#2bf0a8"/>
    <rect x="336" y="120" width="52" height="52" rx="8" fill="#0d1220" stroke="#36d3f7"/>
    <rect x="408" y="120" width="52" height="52" rx="8" fill="#2bf0a8" fill-opacity="0.85" stroke="#2bf0a8"/>
    <rect x="480" y="120" width="52" height="52" rx="8" fill="#0d1220" stroke="#243044"/>
    <rect x="552" y="120" width="52" height="52" rx="8" fill="#2bf0a8" fill-opacity="0.6" stroke="#2bf0a8"/>
    <rect x="624" y="120" width="52" height="52" rx="8" fill="#0d1220" stroke="#243044"/>

    <rect x="120" y="192" width="52" height="52" rx="8" fill="#2bf0a8" fill-opacity="0.7" stroke="#2bf0a8"/>
    <rect x="192" y="192" width="52" height="52" rx="8" fill="#0d1220" stroke="#36d3f7"/>
    <rect x="264" y="192" width="52" height="52" rx="8" fill="#2bf0a8" fill-opacity="0.85" stroke="#2bf0a8"/>
    <rect x="336" y="192" width="52" height="52" rx="8" fill="#2bf0a8" fill-opacity="0.5" stroke="#2bf0a8"/>
    <rect x="408" y="192" width="52" height="52" rx="8" fill="#0d1220" stroke="#243044"/>
    <rect x="480" y="192" width="52" height="52" rx="8" fill="#2bf0a8" fill-opacity="0.75" stroke="#2bf0a8"/>
    <rect x="552" y="192" width="52" height="52" rx="8" fill="#0d1220" stroke="#243044"/>
    <rect x="624" y="192" width="52" height="52" rx="8" fill="#2bf0a8" fill-opacity="0.6" stroke="#2bf0a8"/>

    <rect x="120" y="264" width="52" height="52" rx="8" fill="#0d1220" stroke="#36d3f7"/>
    <rect x="192" y="264" width="52" height="52" rx="8" fill="#2bf0a8" fill-opacity="0.8" stroke="#2bf0a8"/>
    <rect x="264" y="264" width="52" height="52" rx="8" fill="#0d1220" stroke="#243044"/>
    <rect x="336" y="264" width="52" height="52" rx="8" fill="#2bf0a8" fill-opacity="0.65" stroke="#2bf0a8"/>
    <rect x="408" y="264" width="52" height="52" rx="8" fill="#2bf0a8" fill-opacity="0.45" stroke="#2bf0a8"/>
    <rect x="480" y="264" width="52" height="52" rx="8" fill="#0d1220" stroke="#243044"/>
    <rect x="552" y="264" width="52" height="52" rx="8" fill="#2bf0a8" fill-opacity="0.85" stroke="#2bf0a8"/>
    <rect x="624" y="264" width="52" height="52" rx="8" fill="#0d1220" stroke="#36d3f7"/>

    <rect x="120" y="336" width="52" height="52" rx="8" fill="#2bf0a8" fill-opacity="0.55" stroke="#2bf0a8"/>
    <rect x="192" y="336" width="52" height="52" rx="8" fill="#0d1220" stroke="#243044"/>
    <rect x="264" y="336" width="52" height="52" rx="8" fill="#2bf0a8" fill-opacity="0.75" stroke="#2bf0a8"/>
    <rect x="336" y="336" width="52" height="52" rx="8" fill="#0d1220" stroke="#243044"/>
    <rect x="408" y="336" width="52" height="52" rx="8" fill="#2bf0a8" fill-opacity="0.6" stroke="#2bf0a8"/>
    <rect x="480" y="336" width="52" height="52" rx="8" fill="#2bf0a8" fill-opacity="0.4" stroke="#2bf0a8"/>
    <rect x="552" y="336" width="52" height="52" rx="8" fill="#0d1220" stroke="#36d3f7"/>
    <rect x="624" y="336" width="52" height="52" rx="8" fill="#2bf0a8" fill-opacity="0.7" stroke="#2bf0a8"/>
  </g>

  <!-- Un problema abierto, con su solucion -->
  <rect x="760" y="120" width="520" height="320" rx="12" fill="#0d1220" stroke="#2bf0a8" stroke-width="2.5"/>
  <line x1="760" y1="180" x2="1280" y2="180" stroke="#2bf0a8" stroke-width="2.5"/>
  <g fill="#2bf0a8" opacity="0.85">
    <rect x="790" y="145" width="180" height="11" rx="5"/>
  </g>
  <g fill="#36d3f7" opacity="0.45">
    <rect x="790" y="212" width="330" height="9" rx="4"/>
    <rect x="812" y="242" width="250" height="9" rx="4"/>
    <rect x="812" y="272" width="290" height="9" rx="4"/>
    <rect x="834" y="302" width="200" height="9" rx="4"/>
    <rect x="812" y="332" width="264" height="9" rx="4"/>
    <rect x="790" y="362" width="150" height="9" rx="4"/>
  </g>
  <g fill="none" stroke="#b8ff3c" stroke-width="3" stroke-linecap="round">
    <path d="M1180 380 l 22 24 l 46 -58"/>
  </g>
</svg>
